<svg xmlns="http://www.w3.org/2000/svg"  viewBox="0 0 48 48" width="48px" height="48px"><path fill="#B71C1C" d="M44.5,33h-3c-0.276,0-0.5-0.224-0.5-0.5s0.224-0.5,0.5-0.5h3c0.276,0,0.5,0.224,0.5,0.5S44.776,33,44.5,33z"/><path fill="#B71C1C" d="M43.5,37c-0.096,0-0.192-0.027-0.277-0.084l-3-2c-0.229-0.153-0.292-0.464-0.139-0.693 c0.154-0.23,0.465-0.291,0.693-0.139l3,2c0.229,0.153,0.292,0.464,0.139,0.693C43.819,36.922,43.661,37,43.5,37z"/><path fill="#B71C1C" d="M40.5,31c-0.161,0-0.319-0.078-0.416-0.223c-0.153-0.229-0.091-0.54,0.139-0.693l3-2 c0.227-0.153,0.539-0.092,0.693,0.139c0.153,0.229,0.091,0.54-0.139,0.693l-3,2C40.692,30.973,40.596,31,40.5,31z"/><linearGradient id="MbIFzjrN4wvSSduoa9K3da" x1="31.772" x2="5.622" y1="36.6" y2="10.449" gradientUnits="userSpaceOnUse"><stop offset=".335" stop-color="#00838f"/><stop offset=".515" stop-color="#008794"/><stop offset=".715" stop-color="#0092a1"/><stop offset=".924" stop-color="#00a4b7"/><stop offset="1" stop-color="#00acc1"/></linearGradient><path fill="url(#MbIFzjrN4wvSSduoa9K3da)" d="M38.9,26.8l-2.852,1.18c-0.027,0.011-0.042,0.041-0.035,0.07l0.491,1.979	c0.071,0.284-0.098,0.581-0.382,0.653c-0.929,0.236-1.742,0.316-2.642,0.418c-0.58,0.07-0.67,0.79-0.06,1.03	c0.606,0.244,1.316,0.51,2.106,0.68c0.406,0.088,0.599,0.555,0.376,0.905l-0.494,0.773c-0.005,0.008-0.008,0.016-0.008,0.025	c-0.208,2.893-2.904,4.985-5.799,4.386l-2.529-0.486C27.034,38.407,27,38.435,27,38.473v4.468c0,0.033-0.027,0.06-0.06,0.06H9.06	C9.027,43,9,42.973,9,42.94V38.1c0-3-0.9-6-2.7-8.5C4.3,26.9,3,23.7,3,20C3,11.4,8.6,3,20,3c11.093,0,15.395,7.391,15.999,14.987	c0.001,0.009,0.003,0.017,0.008,0.025L39.7,24.2C40.3,25.2,39.9,26.4,38.9,26.8z"/></svg>